# xmcd CD database file
#
# Track frame offsets:
#	150
#	27022
#	48100
#	69227
#	85617
#	98917
#	116375
#	151837
#	183032
#	201622
#	227777
#	235847
#
# Disc length: 3602 seconds
#
# Revision: 12
# Processed by: cddbd v1.5.2PL0 Copyright (c) Steve Scherf et al.
# Submitted via: CDex 1.51
#
DISCID=870e100c
DTITLE=Prince - Emancipation (Disc-2)
DYEAR=1996
DGENRE=Rock
TTITLE0=Sex In The Summer
TTITLE1=One Kiss At A Time
TTITLE2=Soul Sanctuary
TTITLE3=Emale
TTITLE4=Curious Child
TTITLE5=Dreamin' About U
TTITLE6=Joint 2 Joint
TTITLE7=The Holy River
TTITLE8=Let's Have A Baby
TTITLE9=Saviour
TTITLE10=The Plan
TTITLE11=Friend, Lover, Sister, Mother - Wife
EXTD=YEAR: 1996
EXTT0=
EXTT1=
EXTT2=
EXTT3=
EXTT4=
EXTT5=
EXTT6=
EXTT7=
EXTT8=
EXTT9=
EXTT10=
EXTT11=
PLAYORDER=
